<?xml version="1.0" encoding="utf-8"?>
<!-- Generator: Adobe Illustrator 15.1.0, SVG Export Plug-In . SVG Version: 6.00 Build 0)  -->
<!DOCTYPE svg PUBLIC "-//W3C//DTD SVG 1.1//EN" "http://www.w3.org/Graphics/SVG/1.1/DTD/svg11.dtd">
<svg version="1.1" id="Layer_1" xmlns="http://www.w3.org/2000/svg" xmlns:xlink="http://www.w3.org/1999/xlink" x="0px" y="0px"
	 width="1024px" height="1024px" viewBox="0 0 1024 1024" enable-background="new 0 0 1024 1024" xml:space="preserve">
<g>
	<path fill="#E8628C" d="M1024,877.713C1024,958.497,958.5,1024,877.713,1024H146.287C65.503,1024,0,958.497,0,877.713v-731.43
		C0,65.49,65.503,0,146.287,0h731.426C958.5,0,1024,65.49,1024,146.283V877.713z"/>
	<path opacity="0.3" fill="#F8EFF9" d="M877.713,0H146.287C65.503,0,0,65.49,0,146.283v15.227
		C0,80.722,65.503,15.227,146.287,15.227h731.426C958.5,15.227,1024,80.722,1024,161.51v-15.227C1024,65.49,958.5,0,877.713,0z"/>
	<path opacity="0.3" fill="#E8628C" d="M146.287,1024h731.426C958.497,1024,1024,958.508,1024,877.713v-15.226
		c0,80.791-65.503,146.284-146.287,146.284H146.287C65.5,1008.771,0,943.278,0,862.487v15.226C0,958.508,65.5,1024,146.287,1024z"/>
	<polygon fill="#FFFFFF" points="773.077,304.76 768.921,342.705 879.928,354.858 835.381,761.62 724.372,749.458 720.219,787.405 
		869.169,803.719 922.022,321.074 	"/>
	<polygon fill="#FFFFFF" points="188.619,761.62 144.072,354.858 255.08,342.705 250.924,304.76 101.975,321.074 154.831,803.719 
		303.781,787.405 299.628,749.458 	"/>
	<path fill="#FFFFFF" d="M797.221,580.831l-25.849,5.203l9.105,45.219l-10.003-3.818c-18.882-7.21-41.374-11.414-56.646-13.947
		c-11.048-1.836-23.104-3.47-35.95-4.913V208.48H346.127v402.763c-8.108,0.998-15.934,2.056-23.384,3.187
		c-29.353,4.447-52.872,9.835-69.906,16.013l-9.872,3.578l9.66-47.986l-25.848-5.203L205.09,688.588l107.097,21.552l5.204-25.845
		l-49.428-9.947l-21.102-4.626l20.107-6.812c13.405-4.533,37.559-10.652,79.158-15.979v146.827h331.751V644.169
		c47.665,5.604,72.156,13.038,83.909,17.925l17.318,7.192l-23.165,5.084l-49.331,9.925l5.206,25.845l107.091-21.552L797.221,580.831
		z M383.706,294.719h256.588v310.376c-34.063-2.537-72.028-3.885-111.866-3.885c-50.31,0-100.443,2.165-144.722,6.093V294.719z
		 M640.294,707.521H383.706v-64.656c44.497-4.079,94.085-6.257,144.28-6.257c22.627,0,44.998,0.448,66.488,1.328
		c16.771,0.685,31.99,1.585,45.819,2.636V707.521z"/>
</g>
</svg>
