<?xml version="1.0" encoding="utf-8"?>
<!-- Generator: Adobe Illustrator 15.1.0, SVG Export Plug-In . SVG Version: 6.00 Build 0)  -->
<!DOCTYPE svg PUBLIC "-//W3C//DTD SVG 1.1//EN" "http://www.w3.org/Graphics/SVG/1.1/DTD/svg11.dtd">
<svg version="1.1" id="Layer_1" xmlns="http://www.w3.org/2000/svg" xmlns:xlink="http://www.w3.org/1999/xlink" x="0px" y="0px"
	 width="2147.784px" height="495.461px" viewBox="0 0 2147.784 495.461" enable-background="new 0 0 2147.784 495.461"
	 xml:space="preserve">
<g>
	<g>
		<path fill="#E8628C" d="M495.461,424.68c0,39.088-31.692,70.781-70.781,70.781H70.781C31.693,495.461,0,463.768,0,424.68V70.779
			C0,31.688,31.693,0,70.781,0H424.68c39.089,0,70.781,31.688,70.781,70.778V424.68z"/>
		<path opacity="0.3" fill="#F8EFF9" d="M424.68,0H70.781C31.693,0,0,31.688,0,70.779v7.368C0,39.057,31.693,7.368,70.781,7.368
			H424.68c39.089,0,70.781,31.689,70.781,70.779v-7.368C495.461,31.688,463.769,0,424.68,0z"/>
		<path opacity="0.3" fill="#E8628C" d="M70.781,495.461H424.68c39.088,0,70.781-31.689,70.781-70.781v-7.367
			c0,39.09-31.693,70.779-70.781,70.779H70.781C31.692,488.092,0,456.403,0,417.313v7.367C0,463.772,31.692,495.461,70.781,495.461z
			"/>
		<polygon fill="#FFFFFF" points="374.053,147.458 372.041,165.818 425.752,171.698 404.198,368.508 350.486,362.624 
			348.477,380.985 420.546,388.877 446.119,155.352 		"/>
		<polygon fill="#FFFFFF" points="91.263,368.508 69.709,171.698 123.42,165.818 121.409,147.458 49.34,155.352 74.915,388.877 
			146.984,380.985 144.975,362.624 		"/>
		<path fill="#FFFFFF" d="M385.734,281.034l-12.507,2.518l4.405,21.879l-4.84-1.848c-9.136-3.488-20.019-5.521-27.408-6.748
			c-5.346-0.889-11.179-1.678-17.395-2.377V100.874H167.473v194.875c-3.923,0.482-7.709,0.994-11.313,1.543
			c-14.202,2.15-25.582,4.758-33.824,7.746l-4.776,1.732l4.674-23.219l-12.507-2.518l-10.493,52.139l51.818,10.428l2.519-12.506
			l-23.916-4.813l-10.21-2.238l9.729-3.295c6.485-2.193,18.172-5.154,38.3-7.732v71.043H327.99V311.68
			c23.063,2.711,34.913,6.309,40.6,8.672l8.379,3.48l-11.208,2.461l-23.869,4.801l2.52,12.506l51.815-10.428L385.734,281.034z
			 M185.655,142.599h124.15v150.175c-16.481-1.227-34.852-1.879-54.127-1.879c-24.342,0-48.599,1.047-70.023,2.947V142.599z
			 M309.806,342.333h-124.15v-31.283c21.53-1.975,45.523-3.027,69.811-3.027c10.947,0,21.771,0.217,32.17,0.643
			c8.115,0.33,15.479,0.766,22.17,1.275V342.333z"/>
	</g>
	<g>
		<g>
			<polygon points="608.055,324.58 649.399,324.58 649.399,448.814 673.139,448.814 673.139,324.58 714.057,324.58 714.057,303.593 
				608.055,303.593 			"/>
			<path d="M809.235,423.796V375.46c0-12.297-2.826-21.199-8.474-26.713c-5.658-5.512-14.984-8.268-27.982-8.268
				c-12.584,0-26.786,1.84-42.615,5.512l0.851,16.324l6.781-0.424c6.781-0.561,12.998-0.986,18.652-1.271
				c5.658-0.281,10.741-0.424,15.267-0.424c4.806,0,8.444,1.135,10.919,3.393c2.47,2.262,3.708,6.219,3.708,11.871v7.631
				l-27.345,2.332c-12.019,0.992-20.85,3.891-26.502,8.693c-5.654,4.807-8.479,12.582-8.479,23.32
				c0,22.473,10.528,33.707,31.586,33.707c11.731,0,23.106-2.613,34.13-7.844c6.505,5.23,15.9,7.844,28.202,7.844l0.633-17.594
				c-3.108-0.426-5.405-1.379-6.89-2.863C810.19,429.203,809.38,426.908,809.235,423.796z M786.342,427.613l-3.817,1.271
				c-7.634,2.264-15.122,3.393-22.473,3.393c-8.618,0-12.93-4.877-12.93-14.629s4.876-15.051,14.634-15.898l24.586-2.334V427.613z"
				/>
			<path d="M919.163,352.671c-3.327-4.311-7.605-7.42-12.826-9.328c-5.233-1.908-11.45-2.863-18.657-2.863
				c-7.916,0-16.746,2.121-26.503,6.361v-48.125h-22.894v149.883l7.207,0.637c14.42,1.271,24.943,1.908,31.586,1.908
				c9.607,0,17.702-0.953,24.275-2.861c6.574-1.908,11.911-5.016,16.009-9.328c4.093-4.311,7.029-9.998,8.796-17.066
				c1.768-7.064,2.648-15.756,2.648-26.076c0-10.314-0.777-19.006-2.332-26.076C924.918,362.671,922.484,356.984,919.163,352.671z
				 M904.108,411.82c-0.776,4.451-2.227,8.055-4.346,10.811s-5.02,4.77-8.692,6.041c-3.679,1.273-8.341,1.908-13.994,1.908
				c-1.41,0-3.425-0.068-6.038-0.211c-2.62-0.139-5.907-0.352-9.861-0.637v-64.447l3.396-1.061c6.78-2.119,13.567-3.18,20.349-3.18
				c7.208,0,12.399,2.58,15.583,7.738c3.184,5.162,4.772,14.098,4.772,26.818C905.277,401.96,904.887,407.367,904.108,411.82z"/>
			<path d="M1036.924,373.976c5.936-3.25,10.281-7.348,13.038-12.295c2.758-4.945,4.134-11.73,4.134-20.354
				c0-13.283-3.638-22.895-10.914-28.83c-7.282-5.938-18.416-8.904-33.394-8.904h-55.119v145.221h56.816
				c30.81,0,46.214-13.709,46.214-41.129C1057.699,390.585,1050.774,379.349,1036.924,373.976z M978.201,323.945h30.314
				c14.414,0,21.628,6.713,21.628,20.139c0,14.277-6.932,21.412-20.781,21.412h-31.161V323.945z M1027.702,423.691
				c-3.886,3.18-9.718,4.77-17.488,4.77h-32.013v-43.037h31.587c6.781,0,12.439,1.592,16.958,4.771
				c4.525,3.18,6.787,8.729,6.787,16.641C1033.533,414.892,1031.588,420.511,1027.702,423.691z"/>
			<path d="M1160.098,423.796V375.46c0-12.297-2.833-21.199-8.479-26.713c-5.66-5.512-14.985-8.268-27.983-8.268
				c-12.583,0-26.785,1.84-42.616,5.512l0.853,16.324l6.781-0.424c6.781-0.561,12.998-0.986,18.651-1.271
				c5.659-0.281,10.741-0.424,15.266-0.424c4.808,0,8.445,1.135,10.921,3.393c2.469,2.262,3.707,6.219,3.707,11.871v7.631
				l-27.344,2.332c-12.02,0.992-20.85,3.891-26.504,8.693c-5.652,4.807-8.479,12.582-8.479,23.32
				c0,22.473,10.529,33.707,31.587,33.707c11.731,0,23.106-2.613,34.13-7.844c6.505,5.23,15.9,7.844,28.202,7.844l0.633-17.594
				c-3.108-0.426-5.405-1.379-6.892-2.863C1161.047,429.203,1160.234,426.908,1160.098,423.796z M1137.197,427.613l-3.816,1.271
				c-7.634,2.264-15.122,3.393-22.475,3.393c-8.616,0-12.929-4.877-12.929-14.629s4.876-15.051,14.633-15.898l24.587-2.334V427.613z
				"/>
			<path d="M1212.033,342.812h-22.895v106.002h23.106v-73.99l4.663-1.908c9.049-3.955,19.435-7.064,31.166-9.326V340.48
				c-12.158,2.406-24.166,7.42-36.041,15.053V342.812z"/>
			<path d="M1293.868,333.591c2.543-4.168,5.895-7.104,10.068-8.799c4.167-1.695,9.435-2.545,15.795-2.545
				c13.143,0,25.858,1.133,38.16,3.393l0.847-19.08c-7.634-1.834-14.881-3.18-21.73-4.027c-6.857-0.848-13.46-1.271-19.826-1.271
				c-10.598,0-19.394,1.379-26.389,4.135c-6.999,2.756-12.583,7.102-16.751,13.037s-7.098,13.604-8.796,23.002
				c-1.699,9.4-2.544,20.813-2.544,34.236c0,13.43,0.845,24.912,2.544,34.451c1.698,9.541,4.628,17.352,8.796,23.428
				s9.752,10.529,16.751,13.354c6.995,2.826,15.791,4.24,26.389,4.24c13.286,0,27.067-1.555,41.344-4.664l-0.634-19.502
				c-12.866,2.117-25.726,3.178-38.586,3.178c-6.36,0-11.629-0.848-15.797-2.543c-4.172-1.697-7.453-4.629-9.854-8.797
				c-2.405-4.168-4.099-9.717-5.089-16.645c-0.99-6.922-1.484-15.613-1.484-26.074c0-10.457,0.494-19.113,1.484-25.971
				C1289.556,343.273,1291.317,337.761,1293.868,333.591z"/>
			<path d="M1423.183,340.48c-9.05,0-16.607,1.309-22.687,3.924c-6.078,2.617-10.914,6.326-14.519,11.129
				c-3.609,4.807-6.188,10.6-7.741,17.383c-1.555,6.785-2.333,14.348-2.333,22.686c0,9.188,0.853,17.244,2.545,24.168
				c1.698,6.926,4.381,12.721,8.06,17.385c3.672,4.664,8.548,8.162,14.627,10.494c6.073,2.33,13.424,3.496,22.048,3.496
				c8.762,0,16.142-1.166,22.157-3.496c6.004-2.332,10.84-5.83,14.518-10.494c3.673-4.664,6.361-10.459,8.054-17.385
				c1.698-6.924,2.551-14.98,2.551-24.168c0-18.373-3.646-32.152-10.921-41.34C1452.26,345.076,1440.142,340.48,1423.183,340.48z
				 M1446.077,411.82c-0.708,4.592-1.981,8.373-3.817,11.34c-1.837,2.969-4.312,5.125-7.42,6.467
				c-3.109,1.346-6.994,2.016-11.657,2.016c-9.613,0-15.975-2.826-19.083-8.482c-3.253-5.793-4.876-15.051-4.876-27.77
				c0-12.861,1.733-21.977,5.198-27.348c3.46-5.371,9.711-8.057,18.761-8.057c9.044,0,15.295,2.686,18.761,8.057
				c3.46,5.371,5.198,14.486,5.198,27.348C1447.142,401.75,1446.785,407.228,1446.077,411.82z"/>
			<path d="M1574.338,352.458c-2.832-4.166-6.574-7.207-11.236-9.115s-10.529-2.863-17.592-2.863c-9.05,0-18.801,2.969-29.261,8.904
				v-6.572h-22.895v106.002h23.107v-82.258l3.184-1.271c6.781-2.824,13.701-4.24,20.77-4.24c3.816,0,6.96,0.566,9.435,1.695
				c2.476,1.135,4.381,2.969,5.729,5.512c1.341,2.545,2.291,5.799,2.861,9.754c0.563,3.957,0.845,8.834,0.845,14.627v56.182h22.895
				v-56.818c0-9.184-0.599-17.027-1.803-23.531C1579.179,361.964,1577.164,356.628,1574.338,352.458z"/>
			<path d="M1648.534,430.58c-2.545,0-4.594-0.316-6.148-0.953c-1.555-0.635-2.751-1.73-3.604-3.285
				c-0.847-1.555-1.375-3.744-1.589-6.572c-0.213-2.826-0.316-6.361-0.316-10.602v-46.639h29.255v-19.717h-29.255v-30.74h-22.893
				v30.74h-13.575v19.717h13.575v49.186c0,7.629,0.488,13.99,1.479,19.078s2.724,9.117,5.198,12.084
				c2.47,2.967,5.723,5.088,9.751,6.359c4.03,1.271,9.01,1.908,14.944,1.908c5.227,0,12.435-0.92,21.628-2.756l-1.064-18.443
				L1648.534,430.58z"/>
			<path d="M1707.89,342.812h-22.894v106.002h23.107v-73.99l4.662-1.908c9.05-3.955,19.435-7.064,31.166-9.326V340.48
				c-12.157,2.406-24.165,7.42-36.042,15.053V342.812z"/>
			<path d="M1803.714,340.48c-9.044,0-16.608,1.309-22.682,3.924c-6.079,2.617-10.919,6.326-14.523,11.129
				c-3.604,4.807-6.183,10.6-7.736,17.383c-1.561,6.785-2.337,14.348-2.337,22.686c0,9.188,0.852,17.244,2.55,24.168
				c1.692,6.926,4.375,12.721,8.053,17.385c3.673,4.664,8.549,8.162,14.628,10.494c6.073,2.33,13.425,3.496,22.048,3.496
				c8.761,0,16.146-1.166,22.156-3.496c6.005-2.332,10.84-5.83,14.519-10.494c3.678-4.664,6.361-10.459,8.06-17.385
				c1.697-6.924,2.544-14.98,2.544-24.168c0-18.373-3.644-32.152-10.92-41.34C1832.796,345.076,1820.672,340.48,1803.714,340.48z
				 M1826.613,411.82c-0.714,4.592-1.985,8.373-3.816,11.34c-1.843,2.969-4.317,5.125-7.421,6.467
				c-3.114,1.346-6.994,2.016-11.662,2.016c-9.613,0-15.975-2.826-19.078-8.482c-3.252-5.793-4.882-15.051-4.882-27.77
				c0-12.861,1.734-21.977,5.198-27.348c3.461-5.371,9.718-8.057,18.762-8.057c9.043,0,15.295,2.686,18.761,8.057
				s5.198,14.486,5.198,27.348C1827.673,401.75,1827.315,407.228,1826.613,411.82z"/>
			<rect x="1875.158" y="298.716" width="23.106" height="150.098"/>
			<rect x="1928.798" y="298.716" width="23.106" height="150.098"/>
			<path d="M2022.071,340.48c-30.666,0-46.007,18.799-46.007,56.393c0,18.941,3.432,32.723,10.288,41.342
				c6.855,8.621,18.126,12.93,33.813,12.93c6.36,0,13.066-0.424,20.136-1.27c7.068-0.848,14.634-2.047,22.688-3.605l-0.427-17.174
				l-5.935,0.637c-10.599,0.848-20.919,1.271-30.953,1.271c-10.033,0-16.89-2.047-20.563-6.146
				c-3.678-4.098-5.583-10.527-5.721-19.293h65.722l1.48-16.535C2066.593,356.667,2051.752,340.48,2022.071,340.48z
				 M1999.177,387.755c0.139-10.176,1.975-17.416,5.516-21.729c3.528-4.311,9.325-6.467,17.379-6.467
				c8.059,0,13.706,2.051,16.965,6.148c3.246,4.1,4.869,11.449,4.869,22.047H1999.177z"/>
			<path d="M2111.747,355.533v-12.721h-22.899v106.002h23.112v-73.99l4.662-1.908c9.044-3.955,19.429-7.064,31.16-9.326V340.48
				C2135.63,342.886,2123.616,347.9,2111.747,355.533z"/>
		</g>
		<g>
			<path d="M702.819,124.665c-3.114-3.106-7.179-5.794-12.191-8.055c-5.021-2.26-11.128-4.381-18.336-6.361
				c-14.563-3.954-23.958-7.347-28.2-10.176c-4.238-2.825-6.355-7.421-6.355-13.779c0-12.577,8.975-18.869,26.924-18.869
				c4.093,0,9.646,0.285,16.642,0.85c6.994,0.565,15.439,1.413,25.334,2.542l1.906-19.079l-7.421-1.271
				c-14.841-2.544-27.7-3.816-38.586-3.816c-15.261,0-27.13,3.323-35.609,9.965c-8.485,6.644-12.723,16.607-12.723,29.891
				c0,6.504,0.847,12.122,2.544,16.855c1.693,4.736,4.237,8.728,7.628,11.977c3.396,3.254,7.667,6.01,12.831,8.268
				c5.158,2.264,11.197,4.241,18.122,5.938c13.851,3.535,22.755,6.714,26.71,9.539c3.961,2.969,5.941,7.493,5.941,13.568
				c0,15.55-8.768,23.32-26.29,23.32c-10.04,0-24.593-1.273-43.67-3.815l-2.331,18.866l7.634,1.485
				c7.345,1.415,14.305,2.47,20.879,3.179c6.573,0.707,12.895,1.061,18.973,1.061c14.979,0,26.82-3.742,35.507-11.236
				c8.698-7.489,13.039-18.937,13.039-34.343c0-5.936-0.702-11.058-2.119-15.37C708.19,131.485,705.929,127.776,702.819,124.665z"/>
			<polygon points="838.076,174.696 833.833,174.696 813.697,90.534 789.951,90.534 769.809,174.696 765.572,174.696 748.82,88.413 
				726.14,88.413 748.612,194.414 785.288,194.414 801.82,121.699 818.359,194.414 855.034,194.414 877.508,88.413 854.614,88.413 
							"/>
			<rect x="897.218" y="88.413" width="23.107" height="106.001"/>
			<rect x="897.218" y="46.013" width="23.107" height="24.381"/>
			<path d="M1029.297,98.909c-3.253-4.455-7.421-7.702-12.51-9.753c-5.088-2.049-11.167-3.074-18.23-3.074
				c-8.479,0-17.598,2.968-27.35,8.903v-6.572h-22.895v151.58h23.108v-45.155c7.633,1.271,14.345,1.907,20.136,1.907
				c8.485,0,15.727-0.991,21.731-2.968c6.01-1.979,10.92-5.121,14.736-9.433c3.817-4.311,6.603-9.965,8.376-16.962
				c1.761-6.996,2.648-15.508,2.648-25.546c0-10.034-0.818-18.582-2.436-25.652C1034.983,109.12,1032.543,103.36,1029.297,98.909z
				 M1014.242,157.207c-0.845,4.595-2.262,8.342-4.236,11.236c-1.98,2.898-4.6,5.019-7.846,6.36
				c-3.253,1.345-7.282,2.015-12.083,2.015c-3.392,0-6.648-0.139-9.758-0.425c-3.107-0.282-6.073-0.705-8.898-1.271V112.58
				l3.183-1.483c6.638-2.968,13.28-4.451,19.924-4.451c13.994,0,20.987,11.237,20.987,33.707
				C1015.515,146.998,1015.089,152.616,1014.242,157.207z"/>
			<path d="M1103.072,86.082c-30.67,0-46.007,18.798-46.007,56.393c0,18.938,3.426,32.72,10.282,41.339
				c6.855,8.622,18.127,12.932,33.813,12.932c6.361,0,13.073-0.424,20.143-1.271c7.063-0.848,14.627-2.046,22.687-3.605
				l-0.426-17.172l-5.936,0.638c-10.604,0.848-20.919,1.271-30.953,1.271c-10.039,0-16.89-2.047-20.567-6.147
				c-3.674-4.099-5.584-10.526-5.723-19.292h65.724l1.484-16.536C1147.594,102.266,1132.753,86.082,1103.072,86.082z
				 M1080.178,133.357c0.14-10.176,1.976-17.418,5.511-21.729c3.528-4.311,9.324-6.466,17.384-6.466
				c8.054,0,13.706,2.049,16.959,6.147c3.252,4.101,4.876,11.447,4.876,22.048H1080.178z"/>
			<path d="M1248.287,169.397v-48.336c0-12.296-2.826-21.198-8.479-26.712c-5.658-5.512-14.984-8.268-27.982-8.268
				c-12.584,0-26.785,1.837-42.609,5.512l0.845,16.324l6.782-0.425c6.787-0.563,13.004-0.985,18.657-1.271
				c5.652-0.282,10.735-0.425,15.267-0.425c4.801,0,8.438,1.133,10.913,3.391c2.476,2.263,3.714,6.222,3.714,11.873v7.632
				l-27.349,2.331c-12.015,0.992-20.851,3.889-26.504,8.694c-5.652,4.805-8.479,12.579-8.479,23.319
				c0,22.471,10.528,33.707,31.586,33.707c11.731,0,23.112-2.613,34.137-7.843c6.499,5.229,15.899,7.843,28.195,7.843l0.633-17.596
				c-3.107-0.423-5.405-1.378-6.884-2.861C1249.236,174.803,1248.426,172.507,1248.287,169.397z M1225.394,173.214l-3.816,1.271
				c-7.634,2.264-15.128,3.394-22.474,3.394c-8.624,0-12.936-4.877-12.936-14.629s4.876-15.054,14.634-15.901l24.592-2.331V173.214z
				"/>
			<path d="M1358.209,98.271c-3.321-4.309-7.6-7.42-12.826-9.327c-5.233-1.908-11.45-2.862-18.657-2.862
				c-7.916,0-16.746,2.119-26.503,6.361V44.317h-22.894v149.884l7.207,0.637c14.42,1.271,24.949,1.907,31.592,1.907
				c9.608,0,17.702-0.953,24.27-2.862c6.574-1.908,11.911-5.015,16.009-9.328c4.1-4.309,7.029-9.996,8.797-17.064
				c1.767-7.065,2.648-15.758,2.648-26.077c0-10.313-0.778-19.008-2.327-26.076C1363.966,108.272,1361.53,102.584,1358.209,98.271z
				 M1343.155,157.419c-0.777,4.451-2.228,8.055-4.347,10.811c-2.117,2.756-5.013,4.771-8.692,6.043
				c-3.679,1.272-8.341,1.908-13.988,1.908c-1.416,0-3.431-0.07-6.044-0.212c-2.613-0.141-5.906-0.351-9.861-0.636v-64.448
				l3.396-1.06c6.781-2.12,13.568-3.181,20.349-3.181c7.208,0,12.406,2.58,15.583,7.737c3.184,5.162,4.772,14.099,4.772,26.819
				C1344.323,147.561,1343.933,152.967,1343.155,157.419z"/>
			<rect x="1392.236" y="44.317" width="23.106" height="150.097"/>
			<path d="M1530.03,134.629c0-32.363-14.841-48.548-44.516-48.548c-30.672,0-46.007,18.798-46.007,56.393
				c0,18.938,3.426,32.72,10.281,41.339c6.856,8.622,18.128,12.932,33.814,12.932c6.361,0,13.072-0.424,20.136-1.271
				c7.069-0.848,14.634-2.046,22.688-3.605l-0.426-17.172l-5.93,0.638c-10.604,0.848-20.919,1.271-30.953,1.271
				c-10.04,0-16.896-2.047-20.568-6.147c-3.678-4.099-5.583-10.526-5.722-19.292h65.722L1530.03,134.629z M1462.614,133.357
				c0.139-10.176,1.98-17.418,5.516-21.729c3.528-4.311,9.325-6.466,17.385-6.466c8.054,0,13.7,2.049,16.959,6.147
				c3.246,4.101,4.869,11.447,4.869,22.048H1462.614z"/>
		</g>
	</g>
</g>
</svg>
