<?xml version="1.0" encoding="utf-8"?>
<!-- Generator: Adobe Illustrator 15.1.0, SVG Export Plug-In . SVG Version: 6.00 Build 0)  -->
<!DOCTYPE svg PUBLIC "-//W3C//DTD SVG 1.1//EN" "http://www.w3.org/Graphics/SVG/1.1/DTD/svg11.dtd">
<svg version="1.1" id="Layer_1" xmlns="http://www.w3.org/2000/svg" xmlns:xlink="http://www.w3.org/1999/xlink" x="0px" y="0px"
	 width="1074.827px" height="1058.353px" viewBox="0 0 1074.827 1058.353" enable-background="new 0 0 1074.827 1058.353"
	 xml:space="preserve">
<g>
	<path fill="#E8628C" d="M893.155,609.842c0,56.129-45.512,101.641-101.643,101.641H283.313
		c-56.129,0-101.641-45.512-101.641-101.641V101.639C181.673,45.504,227.185,0,283.313,0h508.199
		c56.131,0,101.643,45.504,101.643,101.639V609.842z"/>
	<path opacity="0.3" fill="#F8EFF9" d="M791.513,0H283.313c-56.129,0-101.641,45.504-101.641,101.639v10.58
		c0-56.133,45.512-101.639,101.641-101.639h508.199c56.131,0,101.643,45.506,101.643,101.639v-10.58
		C893.155,45.504,847.644,0,791.513,0z"/>
	<path opacity="0.3" fill="#E8628C" d="M283.313,711.482h508.199c56.131,0,101.643-45.506,101.643-101.641v-10.58
		c0,56.133-45.512,101.639-101.643,101.639H283.313c-56.131,0-101.641-45.506-101.641-101.639v10.58
		C181.673,665.977,227.183,711.482,283.313,711.482z"/>
	<polygon fill="#FFFFFF" points="718.812,211.75 715.923,238.115 793.052,246.559 762.101,529.178 684.972,520.729 682.085,547.094 
		785.577,558.428 822.3,223.086 	"/>
	<polygon fill="#FFFFFF" points="312.726,529.178 281.774,246.559 358.903,238.115 356.017,211.75 252.524,223.086 289.251,558.428 
		392.741,547.094 389.856,520.729 	"/>
	<path fill="#FFFFFF" d="M735.587,403.564l-17.959,3.615l6.326,31.418l-6.951-2.652c-13.119-5.01-28.746-7.93-39.357-9.691
		c-7.678-1.275-16.053-2.408-24.979-3.412V144.854H422.163v279.842c-5.633,0.693-11.07,1.428-16.246,2.215
		c-20.395,3.088-36.736,6.832-48.572,11.123l-6.857,2.488l6.711-33.342l-17.959-3.615l-15.068,74.871l74.41,14.975l3.617-17.959
		l-34.344-6.91l-14.662-3.215l13.973-4.73c9.313-3.15,26.094-7.402,54.998-11.104V551.51h230.504V447.572
		c33.117,3.893,50.135,9.061,58.301,12.453l12.031,4.998l-16.094,3.533l-34.277,6.895l3.619,17.959l74.406-14.975L735.587,403.564z
		 M448.274,204.771h178.279v215.652c-23.668-1.762-50.047-2.699-77.727-2.699c-34.955,0-69.787,1.504-100.553,4.232V204.771z
		 M626.554,491.59H448.274v-44.924c30.916-2.834,65.371-4.346,100.246-4.346c15.721,0,31.266,0.311,46.197,0.922
		c11.652,0.475,22.227,1.1,31.836,1.832V491.59z"/>
</g>
<g>
	<polygon points="0,970.002 28.861,970.002 28.861,1056.725 45.433,1056.725 45.433,970.002 73.996,970.002 73.996,955.352 
		0,955.352 	"/>
	<path d="M140.437,1039.262v-33.742c0-8.584-1.973-14.799-5.915-18.646c-3.95-3.848-10.46-5.771-19.534-5.771
		c-8.783,0-18.697,1.285-29.748,3.848l0.594,11.395l4.734-0.295c4.734-0.391,9.073-0.689,13.02-0.889
		c3.951-0.195,7.499-0.295,10.658-0.295c3.354,0,5.895,0.793,7.622,2.367c1.724,1.58,2.589,4.342,2.589,8.287v5.328l-19.09,1.627
		c-8.389,0.693-14.553,2.717-18.5,6.068c-3.946,3.355-5.918,8.783-5.918,16.279c0,15.688,7.349,23.529,22.049,23.529
		c8.188,0,16.129-1.824,23.824-5.475c4.541,3.65,11.1,5.475,19.688,5.475l0.441-12.281c-2.17-0.297-3.772-0.963-4.81-1.998
		C141.103,1043.035,140.537,1041.434,140.437,1039.262z M124.456,1041.926l-2.666,0.887c-5.328,1.582-10.556,2.369-15.687,2.369
		c-6.017,0-9.026-3.404-9.026-10.213c0-6.807,3.404-10.506,10.216-11.098l17.163-1.629V1041.926z"/>
	<path d="M217.173,989.611c-2.322-3.008-5.309-5.18-8.953-6.512c-3.653-1.332-7.993-1.998-13.024-1.998
		c-5.525,0-11.689,1.48-18.501,4.441v-33.596h-15.98v104.627l5.031,0.445c10.065,0.889,17.412,1.332,22.049,1.332
		c6.707,0,12.357-0.664,16.946-1.996c4.589-1.334,8.313-3.502,11.174-6.512c2.857-3.01,4.907-6.98,6.141-11.914
		c1.233-4.932,1.849-10.998,1.849-18.203c0-7.199-0.542-13.268-1.627-18.203C221.19,996.592,219.491,992.623,217.173,989.611z
		 M206.664,1030.9c-0.542,3.107-1.554,5.623-3.033,7.547s-3.505,3.33-6.068,4.217c-2.568,0.889-5.822,1.332-9.769,1.332
		c-0.984,0-2.391-0.047-4.215-0.146c-1.829-0.098-4.124-0.246-6.885-0.445v-44.988l2.371-0.74c4.733-1.479,9.472-2.219,14.205-2.219
		c5.032,0,8.656,1.801,10.878,5.402c2.223,3.604,3.331,9.84,3.331,18.721C207.479,1024.018,207.207,1027.793,206.664,1030.9z"/>
	<path d="M299.378,1004.484c4.143-2.27,7.177-5.129,9.102-8.582s2.885-8.189,2.885-14.209c0-9.271-2.539-15.982-7.618-20.125
		c-5.083-4.145-12.855-6.217-23.312-6.217h-38.477v101.373h39.662c21.507,0,32.26-9.568,32.26-28.709
		C313.88,1016.078,309.046,1008.234,299.378,1004.484z M258.386,969.559h21.161c10.062,0,15.098,4.686,15.098,14.059
		c0,9.967-4.839,14.947-14.507,14.947h-21.752V969.559z M292.94,1039.188c-2.713,2.221-6.784,3.33-12.208,3.33h-22.347v-30.043
		h22.049c4.734,0,8.685,1.111,11.839,3.332c3.158,2.219,4.737,6.092,4.737,11.615
		C297.011,1033.047,295.653,1036.969,292.94,1039.188z"/>
	<path d="M385.361,1039.262v-33.742c0-8.584-1.978-14.799-5.92-18.646c-3.951-3.848-10.461-5.771-19.534-5.771
		c-8.783,0-18.697,1.285-29.748,3.848l0.594,11.395l4.734-0.295c4.733-0.391,9.073-0.689,13.02-0.889
		c3.951-0.195,7.498-0.295,10.656-0.295c3.356,0,5.896,0.793,7.624,2.367c1.724,1.58,2.587,4.342,2.587,8.287v5.328l-19.087,1.627
		c-8.391,0.693-14.554,2.717-18.501,6.068c-3.946,3.355-5.919,8.783-5.919,16.279c0,15.688,7.35,23.529,22.05,23.529
		c8.189,0,16.129-1.824,23.825-5.475c4.54,3.65,11.1,5.475,19.687,5.475l0.441-12.281c-2.17-0.297-3.773-0.963-4.811-1.998
		C386.023,1043.035,385.456,1041.434,385.361,1039.262z M369.374,1041.926l-2.663,0.887c-5.329,1.582-10.556,2.369-15.688,2.369
		c-6.015,0-9.025-3.404-9.025-10.213c0-6.807,3.404-10.506,10.215-11.098l17.162-1.629V1041.926z"/>
	<path d="M421.615,982.73h-15.981v73.994h16.129v-51.648l3.256-1.332c6.316-2.762,13.566-4.932,21.755-6.512v-16.131
		c-8.486,1.68-16.869,5.18-25.158,10.508V982.73z"/>
	<path d="M478.741,976.293c1.774-2.91,4.115-4.959,7.028-6.143c2.909-1.184,6.586-1.777,11.026-1.777
		c9.174,0,18.051,0.791,26.639,2.369l0.59-13.318c-5.328-1.281-10.388-2.221-15.17-2.813c-4.786-0.592-9.395-0.887-13.839-0.887
		c-7.397,0-13.538,0.963-18.421,2.887c-4.886,1.924-8.783,4.957-11.693,9.1c-2.91,4.145-4.954,9.496-6.141,16.057
		c-1.186,6.563-1.775,14.529-1.775,23.9c0,9.375,0.59,17.391,1.775,24.049c1.187,6.66,3.23,12.113,6.141,16.354
		c2.91,4.242,6.808,7.35,11.693,9.322c4.883,1.973,11.023,2.959,18.421,2.959c9.274,0,18.895-1.084,28.86-3.256l-0.441-13.613
		c-8.982,1.479-17.96,2.219-26.937,2.219c-4.439,0-8.117-0.592-11.027-1.775c-2.912-1.186-5.203-3.232-6.878-6.141
		c-1.68-2.91-2.861-6.783-3.554-11.619c-0.69-4.832-1.036-10.898-1.036-18.201c0-7.299,0.346-13.342,1.036-18.129
		C475.731,983.051,476.96,979.203,478.741,976.293z"/>
	<path d="M569.011,981.102c-6.317,0-11.593,0.914-15.837,2.738c-4.242,1.828-7.618,4.416-10.135,7.77
		c-2.519,3.355-4.319,7.398-5.404,12.135s-1.628,10.016-1.628,15.836c0,6.414,0.596,12.037,1.776,16.871
		c1.186,4.834,3.059,8.879,5.626,12.135c2.563,3.256,5.968,5.697,10.211,7.326c4.239,1.627,9.37,2.439,15.391,2.439
		c6.116,0,11.268-0.813,15.467-2.439c4.191-1.629,7.567-4.07,10.135-7.326c2.563-3.256,4.44-7.301,5.621-12.135
		c1.187-4.834,1.781-10.457,1.781-16.871c0-12.826-2.545-22.445-7.624-28.859C589.309,984.311,580.849,981.102,569.011,981.102z
		 M584.992,1030.9c-0.493,3.205-1.383,5.846-2.664,7.916c-1.282,2.072-3.01,3.578-5.18,4.516c-2.171,0.939-4.882,1.406-8.138,1.406
		c-6.711,0-11.151-1.973-13.321-5.922c-2.271-4.043-3.403-10.506-3.403-19.385c0-8.977,1.209-15.34,3.629-19.09
		c2.415-3.75,6.778-5.625,13.096-5.625c6.313,0,10.677,1.875,13.097,5.625c2.415,3.75,3.628,10.113,3.628,19.09
		C585.735,1023.871,585.486,1027.695,584.992,1030.9z"/>
	<path d="M674.526,989.463c-1.977-2.908-4.589-5.031-7.843-6.363c-3.255-1.332-7.351-1.998-12.28-1.998
		c-6.318,0-13.125,2.072-20.426,6.217v-4.588h-15.982v73.994h16.131v-57.42l2.223-0.889c4.733-1.971,9.564-2.959,14.498-2.959
		c2.664,0,4.858,0.395,6.586,1.184c1.729,0.791,3.058,2.072,3.999,3.848c0.936,1.775,1.599,4.047,1.997,6.809
		c0.393,2.762,0.59,6.166,0.59,10.211v39.217h15.982v-39.662c0-6.41-0.419-11.887-1.26-16.426
		C677.906,996.1,676.499,992.373,674.526,989.463z"/>
	<path d="M726.32,1043.996c-1.776,0-3.206-0.221-4.292-0.664c-1.085-0.443-1.92-1.209-2.516-2.293
		c-0.591-1.086-0.959-2.615-1.109-4.588c-0.147-1.975-0.221-4.441-0.221-7.402v-32.557h20.422V982.73h-20.422v-21.459h-15.98v21.459
		h-9.477v13.762h9.477v34.336c0,5.324,0.342,9.766,1.033,13.316c0.69,3.553,1.9,6.365,3.628,8.436
		c1.724,2.072,3.995,3.553,6.807,4.439c2.813,0.889,6.29,1.332,10.433,1.332c3.648,0,8.68-0.643,15.097-1.924l-0.743-12.875
		L726.32,1043.996z"/>
	<path d="M767.755,982.73h-15.981v73.994h16.13v-51.648l3.255-1.332c6.317-2.762,13.566-4.932,21.756-6.512v-16.131
		c-8.486,1.68-16.868,5.18-25.159,10.508V982.73z"/>
	<path d="M834.646,981.102c-6.313,0-11.594,0.914-15.833,2.738c-4.243,1.828-7.622,4.416-10.139,7.77
		c-2.515,3.355-4.315,7.398-5.4,12.135c-1.089,4.736-1.631,10.016-1.631,15.836c0,6.414,0.595,12.037,1.779,16.871
		c1.182,4.834,3.055,8.879,5.622,12.135c2.563,3.256,5.968,5.697,10.211,7.326c4.239,1.627,9.371,2.439,15.391,2.439
		c6.115,0,11.271-0.813,15.467-2.439c4.191-1.629,7.566-4.07,10.135-7.326c2.567-3.256,4.44-7.301,5.627-12.135
		c1.184-4.834,1.775-10.457,1.775-16.871c0-12.826-2.543-22.445-7.623-28.859C854.947,984.311,846.483,981.102,834.646,981.102z
		 M850.632,1030.9c-0.499,3.205-1.387,5.846-2.665,7.916c-1.286,2.072-3.014,3.578-5.18,4.516c-2.175,0.939-4.883,1.406-8.142,1.406
		c-6.711,0-11.151-1.973-13.316-5.922c-2.271-4.043-3.409-10.506-3.409-19.385c0-8.977,1.211-15.34,3.629-19.09
		c2.416-3.75,6.784-5.625,13.097-5.625s10.678,1.875,13.097,5.625s3.629,10.113,3.629,19.09
		C851.371,1023.871,851.121,1027.695,850.632,1030.9z"/>
	<rect x="884.519" y="951.947" width="16.13" height="104.777"/>
	<rect x="921.962" y="951.947" width="16.13" height="104.777"/>
	<path d="M987.073,981.102c-21.406,0-32.116,13.123-32.116,39.365c0,13.223,2.396,22.842,7.183,28.859
		c4.785,6.018,12.653,9.025,23.604,9.025c4.44,0,9.121-0.295,14.056-0.887c4.935-0.59,10.216-1.428,15.838-2.516l-0.298-11.988
		l-4.143,0.443c-7.398,0.592-14.604,0.889-21.607,0.889s-11.791-1.43-14.355-4.291c-2.566-2.861-3.896-7.348-3.993-13.467h45.878
		l1.034-11.543C1018.152,992.402,1007.792,981.102,987.073,981.102z M971.091,1014.104c0.097-7.104,1.379-12.158,3.851-15.168
		c2.464-3.01,6.51-4.516,12.132-4.516c5.625,0,9.567,1.432,11.842,4.293c2.267,2.861,3.399,7.992,3.399,15.391H971.091z"/>
	<path d="M1049.672,991.609v-8.879h-15.985v73.994h16.135v-51.648l3.255-1.332c6.313-2.762,13.563-4.932,21.751-6.512v-16.131
		C1066.345,982.781,1057.958,986.281,1049.672,991.609z"/>
</g>
<g>
	<path d="M279.621,830.449c-2.175-2.17-5.012-4.045-8.511-5.623c-3.505-1.578-7.769-3.059-12.8-4.441
		c-10.166-2.76-16.725-5.127-19.686-7.104c-2.959-1.971-4.437-5.18-4.437-9.619c0-8.779,6.265-13.172,18.795-13.172
		c2.857,0,6.733,0.201,11.616,0.594c4.882,0.395,10.778,0.986,17.685,1.775l1.331-13.318l-5.181-0.889
		c-10.359-1.775-19.336-2.664-26.935-2.664c-10.653,0-18.939,2.32-24.858,6.957c-5.923,4.637-8.881,11.592-8.881,20.865
		c0,4.539,0.591,8.461,1.776,11.766c1.182,3.307,2.958,6.092,5.324,8.361c2.371,2.271,5.353,4.195,8.957,5.771
		c3.601,1.58,7.816,2.959,12.649,4.145c9.67,2.467,15.885,4.686,18.646,6.658c2.766,2.072,4.147,5.23,4.147,9.473
		c0,10.854-6.119,16.277-18.352,16.277c-7.009,0-17.167-0.889-30.484-2.662l-1.628,13.17l5.329,1.037
		c5.128,0.986,9.986,1.723,14.575,2.219c4.588,0.492,9.001,0.74,13.244,0.74c10.457,0,18.723-2.613,24.786-7.844
		c6.072-5.229,9.102-13.219,9.102-23.975c0-4.143-0.49-7.719-1.479-10.729C283.37,835.211,281.791,832.621,279.621,830.449z"/>
	<polygon points="374.038,865.373 371.076,865.373 357.021,806.623 340.444,806.623 326.383,865.373 323.426,865.373 
		311.732,805.143 295.899,805.143 311.587,879.139 337.188,879.139 348.729,828.379 360.274,879.139 385.876,879.139 
		401.564,805.143 385.583,805.143 	"/>
	<rect x="415.323" y="805.143" width="16.13" height="73.996"/>
	<rect x="415.323" y="775.545" width="16.13" height="17.02"/>
	<path d="M507.522,812.469c-2.271-3.109-5.18-5.375-8.732-6.807c-3.552-1.432-7.795-2.146-12.727-2.146
		c-5.918,0-12.284,2.072-19.091,6.215v-4.588H450.99v105.813h16.132v-31.521c5.328,0.889,10.014,1.332,14.056,1.332
		c5.923,0,10.978-0.691,15.169-2.072c4.195-1.381,7.623-3.574,10.287-6.584c2.666-3.01,4.609-6.957,5.848-11.84
		c1.229-4.885,1.849-10.826,1.849-17.834c0-7.004-0.571-12.971-1.7-17.906C511.492,819.598,509.788,815.576,507.522,812.469z
		 M497.013,853.166c-0.589,3.207-1.578,5.822-2.957,7.842c-1.382,2.023-3.21,3.504-5.477,4.441
		c-2.271,0.938-5.083,1.406-8.434,1.406c-2.369,0-4.642-0.098-6.813-0.297c-2.169-0.197-4.239-0.492-6.211-0.887v-43.658
		l2.221-1.037c4.634-2.07,9.271-3.107,13.908-3.107c9.769,0,14.65,7.846,14.65,23.529
		C497.901,846.039,497.604,849.959,497.013,853.166z"/>
	<path d="M559.022,803.516c-21.41,0-32.116,13.121-32.116,39.365c0,13.221,2.393,22.84,7.178,28.857
		c4.786,6.02,12.654,9.027,23.604,9.027c4.44,0,9.125-0.297,14.061-0.889c4.931-0.592,10.211-1.428,15.837-2.516l-0.297-11.988
		l-4.144,0.445c-7.402,0.592-14.604,0.889-21.607,0.889c-7.009,0-11.79-1.43-14.357-4.291c-2.564-2.861-3.898-7.35-3.995-13.469
		h45.88l1.036-11.543C590.102,814.813,579.741,803.516,559.022,803.516z M543.041,836.516c0.097-7.102,1.378-12.158,3.847-15.168
		c2.463-3.008,6.509-4.514,12.135-4.514c5.622,0,9.567,1.43,11.838,4.291c2.271,2.863,3.404,7.992,3.404,15.391H543.041z"/>
	<path d="M660.392,861.674v-33.74c0-8.584-1.973-14.799-5.919-18.646c-3.95-3.848-10.461-5.771-19.533-5.771
		c-8.785,0-18.698,1.281-29.745,3.848l0.591,11.395l4.733-0.297c4.738-0.393,9.078-0.688,13.024-0.887
		c3.945-0.197,7.493-0.297,10.656-0.297c3.353,0,5.892,0.791,7.618,2.367c1.729,1.58,2.594,4.344,2.594,8.289v5.326l-19.092,1.627
		c-8.387,0.693-14.555,2.715-18.501,6.07c-3.946,3.354-5.92,8.781-5.92,16.277c0,15.688,7.35,23.531,22.049,23.531
		c8.19,0,16.135-1.824,23.83-5.477c4.537,3.652,11.099,5.477,19.682,5.477l0.442-12.283c-2.17-0.295-3.773-0.963-4.806-1.998
		C661.055,865.449,660.488,863.846,660.392,861.674z M644.411,864.34l-2.665,0.887c-5.328,1.58-10.561,2.369-15.688,2.369
		c-6.021,0-9.03-3.404-9.03-10.213c0-6.807,3.404-10.508,10.215-11.1l17.168-1.627V864.34z"/>
	<path d="M737.124,812.023c-2.318-3.006-5.305-5.178-8.953-6.51c-3.653-1.332-7.993-1.998-13.023-1.998
		c-5.527,0-11.69,1.479-18.502,4.439v-33.594h-15.98v104.627l5.031,0.445c10.065,0.889,17.416,1.332,22.053,1.332
		c6.707,0,12.357-0.666,16.941-1.998c4.59-1.332,8.314-3.5,11.176-6.512c2.861-3.008,4.906-6.979,6.141-11.912
		c1.233-4.934,1.849-11,1.849-18.203c0-7.201-0.544-13.27-1.625-18.203C741.144,819.006,739.442,815.035,737.124,812.023z
		 M726.616,853.313c-0.543,3.109-1.556,5.623-3.035,7.547c-1.478,1.924-3.499,3.332-6.067,4.219
		c-2.567,0.889-5.822,1.332-9.765,1.332c-0.988,0-2.395-0.049-4.22-0.148c-1.823-0.098-4.122-0.244-6.884-0.443V820.83l2.372-0.74
		c4.733-1.479,9.471-2.221,14.204-2.221c5.031,0,8.66,1.803,10.878,5.402c2.222,3.604,3.331,9.842,3.331,18.721
		C727.431,846.432,727.158,850.205,726.616,853.313z"/>
	<rect x="760.878" y="774.361" width="16.129" height="104.777"/>
	<path d="M857.066,837.404c0-22.592-10.36-33.889-31.075-33.889c-21.41,0-32.115,13.121-32.115,39.365
		c0,13.221,2.392,22.84,7.177,28.857c4.786,6.02,12.654,9.027,23.604,9.027c4.441,0,9.126-0.297,14.056-0.889
		c4.936-0.592,10.216-1.428,15.839-2.516l-0.298-11.988l-4.14,0.445c-7.402,0.592-14.603,0.889-21.607,0.889
		c-7.008,0-11.794-1.43-14.357-4.291c-2.568-2.861-3.897-7.35-3.994-13.469h45.878L857.066,837.404z M810.006,836.516
		c0.097-7.102,1.383-12.158,3.85-15.168c2.464-3.008,6.51-4.514,12.136-4.514c5.622,0,9.563,1.43,11.839,4.291
		c2.266,2.863,3.399,7.992,3.399,15.391H810.006z"/>
</g>
</svg>
