<?xml version="1.0" encoding="UTF-8"?>
<svg width="167px" height="168px" viewBox="0 0 167 168" version="1.1" xmlns="http://www.w3.org/2000/svg" xmlns:xlink="http://www.w3.org/1999/xlink">
    <!-- Generator: Sketch 62 (91390) - https://sketch.com -->
    <title>167</title>
    <desc>Created with Sketch.</desc>
    <defs>
        <path d="M58.2231583,0 L108.776842,0 C125.54225,0 133.922867,0 142.947825,2.85291667 C152.800825,6.43924167 160.560758,14.199175 164.147083,24.052175 C167,33.0757417 167,41.4591417 167,58.2231583 L167,108.776842 C167,125.54225 167,133.922867 164.147083,142.947825 C160.560758,152.800825 152.800825,160.560758 142.947825,164.145692 C133.922867,167 125.54225,167 108.776842,167 L58.2231583,167 C41.45775,167 33.0757417,167 24.052175,164.145692 C14.199175,160.560758 6.43924167,152.800825 2.85291667,142.947825 C0,133.922867 0,125.54225 0,108.776842 L0,58.2231583 C0,41.4591417 0,33.0757417 2.85291667,24.052175 C6.43924167,14.199175 14.199175,6.43924167 24.052175,2.85291667 C33.0757417,0 41.45775,0 58.2231583,0 L58.2231583,0" id="path-1"></path>
        <linearGradient x1="1.83466762%" y1="100%" x2="97.4133187%" y2="4.16067371%" id="linearGradient-3">
            <stop stop-color="#010739" offset="0%"></stop>
            <stop stop-color="#1800CB" offset="100%"></stop>
        </linearGradient>
        <linearGradient x1="41.7000133%" y1="49.9995886%" x2="1454.97473%" y2="49.9995886%" id="linearGradient-4">
            <stop stop-color="#00DDAA" offset="0%"></stop>
            <stop stop-color="#0095BA" offset="100%"></stop>
        </linearGradient>
    </defs>
    <g id="4-Showcase" stroke="none" stroke-width="1" fill="none" fill-rule="evenodd">
        <g id="Artboard" transform="translate(-1883.000000, -1897.000000)">
            <g id="Swipe" transform="translate(829.000000, 1897.912005)">
                <g id="167" transform="translate(1054.000000, 0.000000)">
                    <mask id="mask-2" fill="white">
                        <use xlink:href="#path-1"></use>
                    </mask>
                    <use id="Icon-Shape" fill="#D6D6D6" xlink:href="#path-1"></use>
                    <g id="Swipe" mask="url(#mask-2)">
                        <polygon id="Clip-2" fill="url(#linearGradient-3)" points="0 0 167 0 167 167 0 167"></polygon>
                        <g id="Group-10" stroke-width="1" transform="translate(37.575000, 41.750000)">
                            <path d="M70.3851595,71.4564019 C70.3851595,75.2132756 69.8065045,76.2303056 65.7325395,76.2303056 L35.0448282,76.2303056 C31.1418295,76.2303056 30.3527545,75.4266181 30.3527545,71.4564019 L30.3527545,67.4423481 C30.636237,57.4006381 41.1265507,55.4615594 41.1265507,55.4615594 L41.1265507,55.4133381 C46.160557,53.7489744 49.7976082,49.0145244 49.7976082,43.4223206 C49.7976082,37.3069894 45.4518507,32.2072269 39.6813745,31.0382269 C36.796867,30.1001044 30.5704807,27.1717594 30.3527545,19.4519756 L30.3527545,13.7209531 C30.3527545,9.7960356 31.185667,8.9485106 35.0448282,8.9485106 L65.7325395,8.9485106 C69.8065045,8.9485106 70.3851595,9.96407935 70.3851595,13.7209531 L70.3851595,71.4564019 Z M65.7325395,0.819576854 L35.0448282,0.819576854 C26.6879395,0.819576854 22.2238207,5.28223435 22.2238207,13.7209531 L22.2238207,71.4564019 C22.2238207,79.8951206 26.6470245,84.3592394 35.0448282,84.3592394 L65.7325395,84.3592394 C74.0908895,84.3592394 78.512632,79.8951206 78.512632,71.4564019 L78.512632,13.7209531 C78.512632,5.28223435 74.0908895,0.819576854 65.7325395,0.819576854 L65.7325395,0.819576854 Z" id="Fill-7" fill="#FFFFFF"></path>
                            <path d="M16.4116293,9.28691523 L16.4116293,74.9335715 L16.1593765,74.8953939 C12.5783071,74.3163488 10.4877218,72.3623361 10.4877218,68.2395852 L10.4877218,68.2395852 L10.4877218,16.0218165 C10.4877218,11.7608115 12.6766743,9.81442648 16.4116293,9.28691523 L16.4116293,9.28691523 Z M5.4980401,16.4576865 L5.4980401,66.4017502 L5.24254919,66.3777496 C1.87380196,66.0143243 0.0198138542,63.9151661 0.0198138542,60.192899 L0.0198138542,60.192899 L0.0198138542,22.6241615 C0.0198138542,18.851214 1.9676601,16.700254 5.4980401,16.4576865 L5.4980401,16.4576865 Z" id="Fill-5" fill="url(#linearGradient-4)"></path>
                        </g>
                    </g>
                </g>
            </g>
        </g>
    </g>
</svg>