<svg id="Layer_1" data-name="Layer 1" xmlns="http://www.w3.org/2000/svg" xmlns:xlink="http://www.w3.org/1999/xlink" viewBox="0 0 1440 370"><defs><style>.cls-1{fill:url(#linear-gradient);}.cls-2{fill:url(#linear-gradient-2);}.cls-3{fill:url(#linear-gradient-3);}.cls-4{fill:#fff;}.cls-5{fill:#1900c8;}</style><linearGradient id="linear-gradient" x1="67.87" y1="231.02" x2="252.37" y2="99.24" gradientUnits="userSpaceOnUse"><stop offset="0" stop-color="#2c0e6b"/><stop offset="1" stop-color="#1800cb"/></linearGradient><linearGradient id="linear-gradient-2" x1="57.96" y1="183.81" x2="183.72" y2="183.81" gradientUnits="userSpaceOnUse"><stop offset="0" stop-color="#0da"/><stop offset="1" stop-color="#0096bb"/></linearGradient><linearGradient id="linear-gradient-3" x1="57.96" y1="183.38" x2="183.72" y2="183.38" xlink:href="#linear-gradient-2"/></defs><title>logotype-b</title><rect class="cls-1" x="2.45" y="53.96" width="261.08" height="261.08" rx="53.55"/><path class="cls-2" d="M72,141.43v84.82c0,6.85,3.56,10,9.62,10.87V130.49C75.6,131.35,72,134.51,72,141.43Z"/><path class="cls-3" d="M54.25,152.83v61c0,6.19,3.16,9.62,8.89,10.08V142.82C57.41,143.21,54.25,146.7,54.25,152.83Z"/><path class="cls-4" d="M162.68,116.06H112.84c-13.58,0-20.83,7.25-20.83,21v93.77c0,13.71,7.18,21,20.83,21h49.84c13.58,0,20.76-7.25,20.76-21V137C183.44,123.31,176.26,116.06,162.68,116.06Zm7.56,114.73c0,6.11-.94,7.76-7.56,7.76H112.84c-6.35,0-7.63-1.31-7.63-7.76v-6.52c.46-16.31,17.5-19.46,17.5-19.46v-.07a20.52,20.52,0,0,0-2.35-39.6c-4.68-1.52-14.79-6.28-15.15-18.82V137c0-6.38,1.36-7.76,7.63-7.76h49.84c6.62,0,7.56,1.65,7.56,7.76Z"/><path class="cls-5" d="M361.88,150.93c1.16,8.6,9.15,13.82,20.63,13.82,10.88,0,18.75-5.72,18.75-13.59,0-6.72-4.43-11.15-15.53-13.6l-8.88-1.94c-16-3.49-23-10.76-23-22.13,0-13.21,11.65-22.47,28.23-22.47,16,0,27.52,9.54,28,23.13h-10c-.89-8.76-7.82-14.14-18.25-14.14-10,0-17.7,4.88-17.7,13,0,6.33,4.27,10.66,15.2,13l8.88,1.94c16.7,3.66,23.3,10.32,23.3,21.64,0,14.81-11.65,24.07-29.57,24.07-17.48,0-29.13-9-30.07-22.8Z"/><path class="cls-5" d="M481.26,172.4h-9.82l-13-44.66h-.22l-13,44.66h-9.82l-16.14-57.69h9.59l11.54,46.93h.22l13-46.93H463L476,161.64h.23l11.54-46.93h9.54Z"/><path class="cls-5" d="M506.78,98.4a6,6,0,1,1,6,6A6,6,0,0,1,506.78,98.4ZM508,114.71h9.65V172.4H508Z"/><path class="cls-5" d="M585.66,143.56c0,18.08-9.93,29.84-24.46,29.84-8.27,0-14.93-4.05-18.36-10.37h-.23v28.62H533V114.71h9.15v9.76h.23A20.71,20.71,0,0,1,561,113.71C575.68,113.71,585.66,125.47,585.66,143.56Zm-9.87,0c0-13-6.44-21.36-16.7-21.36-9.87,0-16.53,8.54-16.53,21.36s6.66,21.35,16.53,21.35C569.35,164.91,575.79,156.65,575.79,143.56Z"/><path class="cls-5" d="M645.41,155.87c-1.66,10.1-11.43,17.53-24,17.53-16.53,0-26.58-11.48-26.58-29.62,0-17.92,10.21-30.07,26.13-30.07,15.59,0,25.19,11.32,25.19,28.79v3.66H604.74v.56c0,11,6.5,18.31,16.87,18.31,7.32,0,12.7-3.72,14.31-9.16ZM604.8,138.62h31.34c-.22-9.65-6.26-16.53-15.36-16.53S605.41,129,604.8,138.62Z"/><path class="cls-5" d="M655.78,156.09c0-9.87,7.6-16.08,20.92-16.86l16.53-.94v-4.83c0-7.05-4.66-11.26-12.65-11.26-7.43,0-12.09,3.49-13.32,9.15h-9.32c.67-10,9.21-17.64,22.86-17.64s22.08,7.32,22.08,18.81V172.4h-9.15v-9.93h-.22A21,21,0,0,1,675,173.4C663.49,173.4,655.78,166.47,655.78,156.09Zm37.45-5.6v-4.72l-15.43.95c-7.76.5-12.2,3.94-12.2,9.37s4.61,9.1,11.54,9.1C686.24,165.19,693.23,158.81,693.23,150.49Z"/><path class="cls-5" d="M727.34,162.64h-.22v9.76h-9.21V92.35h9.66v32h.22a20.45,20.45,0,0,1,18.47-10.65c14.54,0,24.36,11.76,24.36,29.85s-9.77,29.84-24.52,29.84A20.7,20.7,0,0,1,727.34,162.64Zm.17-19.08c0,12.87,6.94,21.35,16.7,21.35,10.21,0,16.53-8.15,16.53-21.35s-6.32-21.36-16.53-21.36C734.45,122.2,727.51,130.74,727.51,143.56Z"/><path class="cls-5" d="M783.15,92.35h9.66V172.4h-9.66Z"/><path class="cls-5" d="M855.88,155.87c-1.66,10.1-11.43,17.53-24,17.53-16.53,0-26.57-11.48-26.57-29.62,0-17.92,10.2-30.07,26.13-30.07,15.58,0,25.18,11.32,25.18,28.79v3.66H815.22v.56c0,11,6.49,18.31,16.86,18.31,7.32,0,12.71-3.72,14.31-9.16Zm-40.61-17.25h31.35c-.23-9.65-6.27-16.53-15.37-16.53S815.88,129,815.27,138.62Z"/><path class="cls-5" d="M376,277.83V206.77H350.78v-9h60.47v9H386v71.06Z"/><path class="cls-5" d="M405.26,261.52c0-9.87,7.6-16.08,20.91-16.86l16.53-.94v-4.83c0-7-4.66-11.26-12.65-11.26-7.43,0-12.09,3.49-13.31,9.15h-9.32c.67-10,9.21-17.64,22.86-17.64s22.08,7.32,22.08,18.81v39.88H443.2V267.9H443a21,21,0,0,1-18.53,10.93C413,278.83,405.26,271.9,405.26,261.52Zm37.44-5.6v-4.71l-15.42.94c-7.77.5-12.2,3.94-12.2,9.37s4.6,9.1,11.53,9.1C435.71,270.62,442.7,264.24,442.7,255.92Z"/><path class="cls-5" d="M476.82,268.07h-.22v9.76h-9.21v-80H477v32h.22a20.47,20.47,0,0,1,18.48-10.65c14.53,0,24.35,11.76,24.35,29.85s-9.76,29.84-24.52,29.84A20.69,20.69,0,0,1,476.82,268.07ZM477,249c0,12.87,6.93,21.36,16.69,21.36,10.21,0,16.54-8.16,16.54-21.36s-6.33-21.36-16.54-21.36C483.92,227.63,477,236.17,477,249Z"/><path class="cls-5" d="M533.63,277.83v-80H564c13.7,0,23,8,23,20,0,8.32-6.1,16.09-13.81,17.48v.44c10.87,1.39,17.86,9,17.86,19.7,0,14.09-10.1,22.46-27.13,22.46Zm10-45.54h15c11.82,0,18.25-4.72,18.25-13.37,0-7.93-5.43-12.32-15.14-12.32H543.61ZM562.36,269c12,0,18.37-4.88,18.37-14.14s-6.55-14-19.31-14H543.61V269Z"/><path class="cls-5" d="M600.75,261.52c0-9.87,7.6-16.08,20.92-16.86l16.53-.94v-4.83c0-7-4.66-11.26-12.65-11.26-7.44,0-12.09,3.49-13.32,9.15h-9.32c.67-10,9.21-17.64,22.86-17.64s22.08,7.32,22.08,18.81v39.88H638.7V267.9h-.23A21,21,0,0,1,620,278.83C608.46,278.83,600.75,271.9,600.75,261.52Zm37.45-5.6v-4.71l-15.43.94c-7.76.5-12.2,3.94-12.2,9.37s4.6,9.1,11.54,9.1C631.21,270.62,638.2,264.24,638.2,255.92Z"/><path class="cls-5" d="M662.38,220.14h9.1v9.43h.22a14.13,14.13,0,0,1,14-10.43,25,25,0,0,1,3.89.39v9.37a19.84,19.84,0,0,0-5.16-.55c-7.49,0-12.37,5.38-12.37,13.54v35.94h-9.66Z"/><path class="cls-5" d="M698.05,237.78c0-25.13,14.15-41.33,36.06-41.33,17.42,0,30.68,10.6,33.23,26.57H757.25c-2.56-10.48-11.71-17.36-23.14-17.36-15.64,0-25.79,12.65-25.79,32.12,0,19.64,10,32.18,25.85,32.18,11.76,0,20.19-5.66,23.08-15.43h10.09c-3.66,15.82-15.53,24.64-33.23,24.64C712,279.17,698.05,263.13,698.05,237.78Z"/><path class="cls-5" d="M777.05,249c0-18.42,10.76-29.85,26.74-29.85s26.68,11.43,26.68,29.85-10.76,29.84-26.68,29.84S777.05,267.35,777.05,249Zm43.61,0c0-13.6-6.66-21.36-16.87-21.36s-16.92,7.76-16.92,21.36,6.71,21.36,16.92,21.36S820.66,262.58,820.66,249Z"/><path class="cls-5" d="M842.46,220.14h9.09v9.21h.23c3.21-6.22,9.37-10.21,18.3-10.21,12.65,0,20,8.16,20,21.25v37.44H880.4V242.11c0-9.32-4.38-14.43-13.26-14.43-9.1,0-15,6.44-15,16.2v33.95h-9.65Z"/><path class="cls-5" d="M917.35,206.21v13.93h11.2v7.93h-11.2v34.29c0,5.27,2.22,7.65,7.15,7.65a35.42,35.42,0,0,0,4-.28v8.1a34.09,34.09,0,0,1-6.1.45c-10.6,0-14.71-4.33-14.71-15.42V228.07H899.1v-7.93h8.59V206.21Z"/><path class="cls-5" d="M941.09,220.14h9.1v9.43h.22a14.13,14.13,0,0,1,14-10.43,24.86,24.86,0,0,1,3.88.39v9.37a19.78,19.78,0,0,0-5.16-.55c-7.49,0-12.37,5.38-12.37,13.54v35.94h-9.65Z"/><path class="cls-5" d="M972.76,249c0-18.42,10.77-29.85,26.74-29.85s26.69,11.43,26.69,29.85-10.76,29.84-26.69,29.84S972.76,267.35,972.76,249Zm43.61,0c0-13.6-6.66-21.36-16.87-21.36s-16.92,7.76-16.92,21.36,6.72,21.36,16.92,21.36S1016.37,262.58,1016.37,249Z"/><path class="cls-5" d="M1038.67,197.78h9.65v80h-9.65Z"/><path class="cls-5" d="M1064.13,197.78h9.65v80h-9.65Z"/><path class="cls-5" d="M1136.86,261.3c-1.67,10.1-11.43,17.53-24,17.53-16.53,0-26.58-11.48-26.58-29.62,0-17.92,10.21-30.07,26.13-30.07,15.59,0,25.19,11.32,25.19,28.79v3.66h-41.39v.56c0,11,6.49,18.31,16.87,18.31,7.32,0,12.7-3.72,14.31-9.16Zm-40.61-17.25h31.34c-.22-9.65-6.27-16.53-15.36-16.53S1096.86,234.45,1096.25,244.05Z"/><path class="cls-5" d="M1149.56,220.14h9.1v9.43h.22a14.13,14.13,0,0,1,14-10.43,24.72,24.72,0,0,1,3.88.39v9.37a19.78,19.78,0,0,0-5.16-.55c-7.48,0-12.37,5.38-12.37,13.54v35.94h-9.65Z"/></svg>