<svg id="Layer_1" data-name="Layer 1" xmlns="http://www.w3.org/2000/svg" xmlns:xlink="http://www.w3.org/1999/xlink" viewBox="0 0 1440 370"><defs><style>.cls-1{fill:url(#linear-gradient);}.cls-2{fill:#fff;}.cls-3{fill:url(#linear-gradient-2);}.cls-4{fill:url(#linear-gradient-3);}</style><linearGradient id="linear-gradient" x1="267.5" y1="637.5" x2="1172.5" y2="-267.5" gradientUnits="userSpaceOnUse"><stop offset="0" stop-color="#2c0e6b"/><stop offset="1" stop-color="#1800cb"/></linearGradient><linearGradient id="linear-gradient-2" x1="95.2" y1="184.86" x2="276.13" y2="184.86" gradientUnits="userSpaceOnUse"><stop offset="0" stop-color="#0da"/><stop offset="1" stop-color="#0096bb"/></linearGradient><linearGradient id="linear-gradient-3" x1="95.2" y1="184.24" x2="276.13" y2="184.24" xlink:href="#linear-gradient-2"/></defs><title>logotype-a</title><rect class="cls-1" width="1440" height="370"/><path class="cls-2" d="M390.57,156.22c1,7.24,7.72,11.64,17.39,11.64,9.16,0,15.8-4.82,15.8-11.46,0-5.65-3.74-9.39-13.09-11.45l-7.48-1.64c-13.51-2.94-19.35-9.07-19.35-18.65,0-11.12,9.82-18.93,23.8-18.93,13.46,0,23.18,8,23.56,19.49h-8.42c-.75-7.38-6.59-11.92-15.38-11.92-8.41,0-14.91,4.12-14.91,11,0,5.33,3.6,9,12.81,11l7.48,1.64c14.07,3.08,19.63,8.69,19.63,18.23,0,12.48-9.82,20.29-24.92,20.29-14.72,0-24.54-7.57-25.33-19.21Z"/><path class="cls-2" d="M491.17,174.31H482.9l-11-37.63h-.19l-10.94,37.63h-8.27l-13.6-48.62H447l9.73,39.55h.18l11-39.55h7.85l11,39.55H487l9.73-39.55h8Z"/><path class="cls-2" d="M512.67,112a5.1,5.1,0,1,1,5.1,5.09A5.08,5.08,0,0,1,512.67,112Zm1,13.74h8.14v48.62H513.7Z"/><path class="cls-2" d="M579.15,150c0,15.24-8.37,25.15-20.62,25.15-7,0-12.57-3.41-15.47-8.74h-.19v24.12h-8.13V125.69h7.71v8.23h.19a17.44,17.44,0,0,1,15.7-9.07C570.73,124.85,579.15,134.76,579.15,150Zm-8.33,0c0-11-5.42-18-14.07-18-8.32,0-13.93,7.2-13.93,18s5.61,18,13.93,18C565.4,168,570.82,161,570.82,150Z"/><path class="cls-2" d="M629.49,160.38c-1.4,8.51-9.63,14.77-20.24,14.77-13.93,0-22.39-9.68-22.39-25,0-15.1,8.6-25.34,22-25.34,13.14,0,21.23,9.54,21.23,24.26v3.09H595.22v.46c0,9.31,5.47,15.43,14.22,15.43,6.17,0,10.7-3.13,12.06-7.71Zm-34.22-14.54h26.41c-.18-8.14-5.28-13.93-12.95-13.93S595.79,137.75,595.27,145.84Z"/><path class="cls-2" d="M638.23,160.56c0-8.32,6.4-13.55,17.62-14.21l13.93-.79v-4.07c0-5.94-3.92-9.49-10.65-9.49-6.27,0-10.19,2.95-11.22,7.71h-7.86c.56-8.41,7.76-14.86,19.26-14.86s18.61,6.17,18.61,15.85v33.61h-7.71v-8.37H670a17.74,17.74,0,0,1-15.62,9.21C644.73,175.15,638.23,169.31,638.23,160.56Zm31.55-4.72v-4l-13,.79c-6.55.42-10.29,3.32-10.29,7.9s3.88,7.67,9.73,7.67C663.89,168.23,669.78,162.86,669.78,155.84Z"/><path class="cls-2" d="M698.53,166.08h-.18v8.23h-7.76V106.85h8.13v27h.19a17.23,17.23,0,0,1,15.56-9c12.25,0,20.53,9.91,20.53,25.15s-8.23,25.15-20.67,25.15A17.44,17.44,0,0,1,698.53,166.08Zm.14-16.08c0,10.84,5.85,18,14.07,18,8.61,0,13.93-6.88,13.93-18s-5.32-18-13.93-18C704.52,132,698.67,139.2,698.67,150Z"/><path class="cls-2" d="M745.56,106.85h8.13v67.46h-8.13Z"/><path class="cls-2" d="M806.84,160.38c-1.4,8.51-9.63,14.77-20.24,14.77-13.93,0-22.39-9.68-22.39-25,0-15.1,8.6-25.34,22-25.34,13.13,0,21.22,9.54,21.22,24.26v3.09H772.58v.46c0,9.31,5.47,15.43,14.21,15.43,6.17,0,10.7-3.13,12.06-7.71Zm-34.22-14.54H799c-.19-8.14-5.29-13.93-12.95-13.93S773.14,137.75,772.62,145.84Z"/><path class="cls-2" d="M402.49,263.15V203.27H381.22v-7.58h51v7.58H410.91v59.88Z"/><path class="cls-2" d="M427.13,249.41c0-8.33,6.4-13.56,17.62-14.22l13.93-.79v-4.07c0-5.93-3.93-9.49-10.66-9.49-6.26,0-10.19,2.95-11.22,7.72H429c.56-8.42,7.76-14.87,19.26-14.87s18.61,6.17,18.61,15.85v33.61H459.1v-8.37h-.18A17.74,17.74,0,0,1,443.3,264C433.62,264,427.13,258.15,427.13,249.41Zm31.55-4.73v-4l-13,.8c-6.55.42-10.29,3.31-10.29,7.9s3.88,7.66,9.72,7.66C452.79,257.07,458.68,251.7,458.68,244.68Z"/><path class="cls-2" d="M487.43,254.92h-.19v8.23h-7.76V195.69h8.14v27h.18a17.24,17.24,0,0,1,15.57-9c12.25,0,20.52,9.91,20.52,25.15S515.66,264,503.23,264A17.43,17.43,0,0,1,487.43,254.92Zm.14-16.08c0,10.85,5.84,18,14.07,18,8.6,0,13.93-6.87,13.93-18s-5.33-18-13.93-18C493.41,220.84,487.57,228,487.57,238.84Z"/><path class="cls-2" d="M535.3,263.15V195.69h25.57c11.54,0,19.35,6.73,19.35,16.83,0,7-5.14,13.56-11.64,14.73v.37c9.16,1.17,15,7.62,15,16.6,0,11.87-8.5,18.93-22.86,18.93Zm8.41-38.38h12.62c10,0,15.38-4,15.38-11.27,0-6.68-4.58-10.38-12.76-10.38H543.71Zm15.8,30.95c10.15,0,15.47-4.12,15.47-11.92S569.47,232,558.72,232h-15v23.7Z"/><path class="cls-2" d="M591.86,249.41c0-8.33,6.4-13.56,17.62-14.22l13.93-.79v-4.07c0-5.93-3.92-9.49-10.65-9.49-6.27,0-10.2,2.95-11.22,7.72h-7.86c.56-8.42,7.76-14.87,19.26-14.87s18.61,6.17,18.61,15.85v33.61h-7.72v-8.37h-.18A17.74,17.74,0,0,1,608,264C598.36,264,591.86,258.15,591.86,249.41Zm31.55-4.73v-4l-13,.8c-6.55.42-10.29,3.31-10.29,7.9s3.88,7.66,9.73,7.66C617.52,257.07,623.41,251.7,623.41,244.68Z"/><path class="cls-2" d="M643.79,214.53h7.67v7.95h.19a11.9,11.9,0,0,1,11.78-8.79,20.18,20.18,0,0,1,3.27.33v7.9a16.09,16.09,0,0,0-4.35-.47c-6.31,0-10.42,4.54-10.42,11.41v30.29h-8.14Z"/><path class="cls-2" d="M673.85,229.4c0-21.18,11.92-34.83,30.39-34.83,14.67,0,25.85,8.93,28,22.39h-8.51c-2.15-8.83-9.86-14.63-19.49-14.63-13.19,0-21.74,10.66-21.74,27.07s8.46,27.11,21.78,27.11c9.91,0,17-4.77,19.45-13h8.51c-3.09,13.32-13.09,20.75-28,20.75C685.63,264.27,673.85,250.76,673.85,229.4Z"/><path class="cls-2" d="M740.42,238.84c0-15.52,9.07-25.15,22.53-25.15s22.48,9.63,22.48,25.15S776.37,264,763,264,740.42,254.31,740.42,238.84Zm36.74,0c0-11.45-5.61-18-14.21-18s-14.26,6.55-14.26,18,5.66,18,14.26,18S777.16,250.29,777.16,238.84Z"/><path class="cls-2" d="M795.53,214.53h7.67v7.76h.18c2.71-5.23,7.9-8.6,15.43-8.6,10.66,0,16.83,6.87,16.83,17.9v31.56H827.5V233c0-7.85-3.69-12.15-11.17-12.15-7.66,0-12.67,5.42-12.67,13.65v28.61h-8.13Z"/><path class="cls-2" d="M858.64,202.8v11.73h9.44v6.69h-9.44v28.89c0,4.44,1.87,6.45,6,6.45a29.82,29.82,0,0,0,3.36-.24v6.83a29.34,29.34,0,0,1-5.14.37c-8.93,0-12.39-3.64-12.39-13V221.22h-7.24v-6.69h7.24V202.8Z"/><path class="cls-2" d="M878.64,214.53h7.67v7.95h.19a11.9,11.9,0,0,1,11.78-8.79,20.18,20.18,0,0,1,3.27.33v7.9a16.15,16.15,0,0,0-4.35-.47c-6.31,0-10.42,4.54-10.42,11.41v30.29h-8.14Z"/><path class="cls-2" d="M905.33,238.84c0-15.52,9.07-25.15,22.54-25.15s22.48,9.63,22.48,25.15S941.28,264,927.87,264,905.33,254.31,905.33,238.84Zm36.75,0c0-11.45-5.61-18-14.21-18s-14.26,6.55-14.26,18,5.65,18,14.26,18S942.08,250.29,942.08,238.84Z"/><path class="cls-2" d="M960.87,195.69H969v67.46h-8.13Z"/><path class="cls-2" d="M982.32,195.69h8.14v67.46h-8.14Z"/><path class="cls-2" d="M1043.61,249.22c-1.41,8.51-9.63,14.77-20.25,14.77-13.93,0-22.39-9.68-22.39-25,0-15.1,8.6-25.34,22-25.34,13.14,0,21.22,9.54,21.22,24.26V241h-34.87v.47c0,9.3,5.47,15.42,14.21,15.42,6.17,0,10.71-3.13,12.06-7.71Zm-34.22-14.54h26.41c-.19-8.13-5.28-13.93-12.95-13.93S1009.9,226.59,1009.39,234.68Z"/><path class="cls-2" d="M1054.31,214.53H1062v7.95h.18a11.91,11.91,0,0,1,11.78-8.79,20.2,20.2,0,0,1,3.28.33v7.9a16.15,16.15,0,0,0-4.35-.47c-6.31,0-10.43,4.54-10.43,11.41v30.29h-8.13Z"/><path class="cls-3" d="M115.46,123.89v122c0,9.86,5.12,14.41,13.85,15.64V108.15C120.58,109.38,115.46,113.94,115.46,123.89Z"/><path class="cls-4" d="M89.86,140.29v87.8c0,8.92,4.56,13.85,12.8,14.51V125.88C94.42,126.45,89.86,131.48,89.86,140.29Z"/><path class="cls-2" d="M245.87,87.39H174.16c-19.54,0-30,10.43-30,30.15V252.46c0,19.72,10.34,30.15,30,30.15h71.71c19.53,0,29.87-10.43,29.87-30.15V117.54C275.74,97.82,265.4,87.39,245.87,87.39Zm10.87,165.07c0,8.78-1.35,11.16-10.87,11.16H174.16c-9.13,0-11-1.88-11-11.16v-9.38c.66-23.47,25.18-28,25.18-28V215A29.52,29.52,0,0,0,185,158c-6.74-2.19-21.29-9-21.8-27.08V117.54c0-9.18,1.95-11.16,11-11.16h71.71c9.52,0,10.87,2.38,10.87,11.16Z"/></svg>